%TF.GenerationSoftware,KiCad,Pcbnew,8.0.3*%
%TF.CreationDate,2024-06-27T14:15:57-04:00*%
%TF.ProjectId,PCB,5043422e-6b69-4636-9164-5f7063625858,rev?*%
%TF.SameCoordinates,Original*%
%TF.FileFunction,Copper,L1,Top*%
%TF.FilePolarity,Positive*%
%FSLAX46Y46*%
G04 Gerber Fmt 4.6, Leading zero omitted, Abs format (unit mm)*
G04 Created by KiCad (PCBNEW 8.0.3) date 2024-06-27 14:15:57*
%MOMM*%
%LPD*%
G01*
G04 APERTURE LIST*
G04 Aperture macros list*
%AMRoundRect*
0 Rectangle with rounded corners*
0 $1 Rounding radius*
0 $2 $3 $4 $5 $6 $7 $8 $9 X,Y pos of 4 corners*
0 Add a 4 corners polygon primitive as box body*
4,1,4,$2,$3,$4,$5,$6,$7,$8,$9,$2,$3,0*
0 Add four circle primitives for the rounded corners*
1,1,$1+$1,$2,$3*
1,1,$1+$1,$4,$5*
1,1,$1+$1,$6,$7*
1,1,$1+$1,$8,$9*
0 Add four rect primitives between the rounded corners*
20,1,$1+$1,$2,$3,$4,$5,0*
20,1,$1+$1,$4,$5,$6,$7,0*
20,1,$1+$1,$6,$7,$8,$9,0*
20,1,$1+$1,$8,$9,$2,$3,0*%
G04 Aperture macros list end*
%TA.AperFunction,ComponentPad*%
%ADD10R,1.700000X1.700000*%
%TD*%
%TA.AperFunction,ComponentPad*%
%ADD11O,1.700000X1.700000*%
%TD*%
%TA.AperFunction,ComponentPad*%
%ADD12C,2.800000*%
%TD*%
%TA.AperFunction,ComponentPad*%
%ADD13O,2.800000X2.800000*%
%TD*%
%TA.AperFunction,SMDPad,CuDef*%
%ADD14R,2.700000X0.500000*%
%TD*%
%TA.AperFunction,SMDPad,CuDef*%
%ADD15R,2.700000X1.000000*%
%TD*%
%TA.AperFunction,SMDPad,CuDef*%
%ADD16RoundRect,0.155000X-0.155000X0.212500X-0.155000X-0.212500X0.155000X-0.212500X0.155000X0.212500X0*%
%TD*%
%TA.AperFunction,ViaPad*%
%ADD17C,0.600000*%
%TD*%
%TA.AperFunction,Conductor*%
%ADD18C,0.200000*%
%TD*%
%TA.AperFunction,Conductor*%
%ADD19C,0.635000*%
%TD*%
G04 APERTURE END LIST*
D10*
%TO.P,J1,1,Pin_1*%
%TO.N,VCC*%
X213817200Y-47955200D03*
D11*
%TO.P,J1,2,Pin_2*%
%TO.N,GND*%
X213817200Y-50495200D03*
%TD*%
D12*
%TO.P,R4,1*%
%TO.N,VCC*%
X221800000Y-70250000D03*
D13*
%TO.P,R4,2*%
%TO.N,Net-(LED4-A)*%
X247200000Y-70250000D03*
%TD*%
D12*
%TO.P,R3,1*%
%TO.N,VCC*%
X221800000Y-63000000D03*
D13*
%TO.P,R3,2*%
%TO.N,Net-(LED3-A)*%
X247200000Y-63000000D03*
%TD*%
D12*
%TO.P,R2,1*%
%TO.N,VCC*%
X221800000Y-55750000D03*
D13*
%TO.P,R2,2*%
%TO.N,Net-(LED2-A)*%
X247200000Y-55750000D03*
%TD*%
D12*
%TO.P,R1,1*%
%TO.N,VCC*%
X221800000Y-48500000D03*
D13*
%TO.P,R1,2*%
%TO.N,Net-(LED1-A)*%
X247200000Y-48500000D03*
%TD*%
D14*
%TO.P,LED4,1,K*%
%TO.N,GND*%
X252650000Y-68900000D03*
%TO.P,LED4,2,A*%
%TO.N,Net-(LED4-A)*%
X252650000Y-66700000D03*
D15*
%TO.P,LED4,3,EP*%
%TO.N,GND*%
X252650000Y-67800000D03*
%TD*%
D14*
%TO.P,LED3,1,K*%
%TO.N,GND*%
X252650000Y-62350000D03*
%TO.P,LED3,2,A*%
%TO.N,Net-(LED3-A)*%
X252650000Y-60150000D03*
D15*
%TO.P,LED3,3,EP*%
%TO.N,GND*%
X252650000Y-61250000D03*
%TD*%
D14*
%TO.P,LED2,1,K*%
%TO.N,GND*%
X252650000Y-55800000D03*
%TO.P,LED2,2,A*%
%TO.N,Net-(LED2-A)*%
X252650000Y-53600000D03*
D15*
%TO.P,LED2,3,EP*%
%TO.N,GND*%
X252650000Y-54700000D03*
%TD*%
%TO.P,LED1,3,EP*%
%TO.N,GND*%
X252650000Y-48100000D03*
D14*
%TO.P,LED1,2,A*%
%TO.N,Net-(LED1-A)*%
X252650000Y-47000000D03*
%TO.P,LED1,1,K*%
%TO.N,GND*%
X252650000Y-49200000D03*
%TD*%
D16*
%TO.P,C2,1*%
%TO.N,VCC*%
X216662000Y-48641000D03*
%TO.P,C2,2*%
%TO.N,GND*%
X216662000Y-49776000D03*
%TD*%
%TO.P,C1,1*%
%TO.N,VCC*%
X217805000Y-48641000D03*
%TO.P,C1,2*%
%TO.N,GND*%
X217805000Y-49776000D03*
%TD*%
D17*
%TO.N,GND*%
X254152400Y-70129400D03*
X250342400Y-70002400D03*
X254558800Y-71043800D03*
X252171200Y-71094600D03*
X231140000Y-71120000D03*
X231140000Y-63500000D03*
X231140000Y-55880000D03*
X231140000Y-48260000D03*
X213360000Y-65024000D03*
X213360000Y-56134000D03*
X217551000Y-65532000D03*
X217678000Y-59182000D03*
X255016000Y-61214000D03*
X255016000Y-63627000D03*
X250190000Y-63627000D03*
X255016000Y-62357000D03*
X252603000Y-63500000D03*
X250317000Y-62357000D03*
X241427000Y-48133000D03*
X234188000Y-48260000D03*
X226695000Y-48260000D03*
X213741000Y-52324000D03*
X211963000Y-50546000D03*
X215646000Y-50419000D03*
X210947000Y-74549000D03*
X211201000Y-45085000D03*
X220472000Y-45212000D03*
X215519000Y-45339000D03*
X256159000Y-67691000D03*
X256286000Y-61087000D03*
X256413000Y-48006000D03*
X256286000Y-54610000D03*
X253492000Y-48133000D03*
X252603000Y-48133000D03*
X251714000Y-48133000D03*
X253492000Y-54737000D03*
X252603000Y-54737000D03*
X251714000Y-54737000D03*
X253492000Y-61214000D03*
X252603000Y-61214000D03*
X251714000Y-61214000D03*
X252628400Y-67792600D03*
X251688600Y-67792600D03*
X253517400Y-67792600D03*
X253000000Y-56000000D03*
X253000000Y-62500000D03*
%TD*%
D18*
%TO.N,GND*%
X252628400Y-67821600D02*
X252600000Y-67850000D01*
X252628400Y-67792600D02*
X252628400Y-67821600D01*
X252657400Y-67792600D02*
X252628400Y-67792600D01*
X252650000Y-67800000D02*
X252657400Y-67792600D01*
X252600000Y-68900000D02*
X252500000Y-69000000D01*
D19*
%TO.N,Net-(LED4-A)*%
X247200000Y-70250000D02*
X250750000Y-66700000D01*
X250750000Y-66700000D02*
X252650000Y-66700000D01*
%TO.N,Net-(LED3-A)*%
X250050000Y-60150000D02*
X252650000Y-60150000D01*
X247200000Y-63000000D02*
X250050000Y-60150000D01*
%TO.N,Net-(LED2-A)*%
X249350000Y-53600000D02*
X252650000Y-53600000D01*
X247200000Y-55750000D02*
X249350000Y-53600000D01*
%TO.N,Net-(LED1-A)*%
X248650000Y-47050000D02*
X252650000Y-47050000D01*
X247200000Y-48500000D02*
X248650000Y-47050000D01*
%TD*%
%TA.AperFunction,Conductor*%
%TO.N,VCC*%
G36*
X223027677Y-46247685D02*
G01*
X223048319Y-46264319D01*
X224626681Y-47842681D01*
X224660166Y-47904004D01*
X224663000Y-47930362D01*
X224663000Y-70687638D01*
X224643315Y-70754677D01*
X224626681Y-70775319D01*
X223048319Y-72353681D01*
X222986996Y-72387166D01*
X222960638Y-72390000D01*
X221984133Y-72390000D01*
X221917094Y-72370315D01*
X221871339Y-72317511D01*
X221861395Y-72248353D01*
X221890420Y-72184797D01*
X221949198Y-72147023D01*
X221975287Y-72142316D01*
X222071090Y-72135463D01*
X222071097Y-72135462D01*
X222336654Y-72077694D01*
X222591306Y-71982714D01*
X222591310Y-71982712D01*
X222829844Y-71852462D01*
X222955123Y-71758677D01*
X222955124Y-71758676D01*
X222085757Y-70889309D01*
X222131574Y-70870332D01*
X222246224Y-70793726D01*
X222343726Y-70696224D01*
X222420332Y-70581574D01*
X222439309Y-70535757D01*
X223308676Y-71405124D01*
X223308677Y-71405123D01*
X223402462Y-71279844D01*
X223532712Y-71041310D01*
X223532714Y-71041306D01*
X223627694Y-70786654D01*
X223685462Y-70521097D01*
X223685463Y-70521090D01*
X223704853Y-70250001D01*
X223704853Y-70249998D01*
X223685463Y-69978909D01*
X223685462Y-69978902D01*
X223627694Y-69713345D01*
X223532714Y-69458693D01*
X223532712Y-69458689D01*
X223402467Y-69220164D01*
X223402466Y-69220163D01*
X223308676Y-69094874D01*
X222439309Y-69964242D01*
X222420332Y-69918426D01*
X222343726Y-69803776D01*
X222246224Y-69706274D01*
X222131574Y-69629668D01*
X222085757Y-69610690D01*
X222955124Y-68741322D01*
X222955123Y-68741321D01*
X222829843Y-68647537D01*
X222829835Y-68647532D01*
X222591310Y-68517287D01*
X222591306Y-68517285D01*
X222336654Y-68422305D01*
X222071097Y-68364537D01*
X222071090Y-68364536D01*
X221800001Y-68345147D01*
X221799999Y-68345147D01*
X221528909Y-68364536D01*
X221528902Y-68364537D01*
X221263345Y-68422305D01*
X221008693Y-68517285D01*
X221008689Y-68517287D01*
X220770164Y-68647532D01*
X220770156Y-68647537D01*
X220644875Y-68741321D01*
X220644874Y-68741322D01*
X221514242Y-69610690D01*
X221468426Y-69629668D01*
X221353776Y-69706274D01*
X221256274Y-69803776D01*
X221179668Y-69918426D01*
X221160690Y-69964242D01*
X220291322Y-69094874D01*
X220291321Y-69094875D01*
X220197537Y-69220156D01*
X220197532Y-69220164D01*
X220067287Y-69458689D01*
X220067285Y-69458693D01*
X219972305Y-69713345D01*
X219914537Y-69978902D01*
X219914536Y-69978909D01*
X219895147Y-70249998D01*
X219895147Y-70250001D01*
X219914536Y-70521090D01*
X219914537Y-70521097D01*
X219972305Y-70786654D01*
X220067285Y-71041306D01*
X220067287Y-71041310D01*
X220197532Y-71279835D01*
X220197537Y-71279843D01*
X220291321Y-71405123D01*
X220291322Y-71405124D01*
X221160690Y-70535756D01*
X221179668Y-70581574D01*
X221256274Y-70696224D01*
X221353776Y-70793726D01*
X221468426Y-70870332D01*
X221514242Y-70889309D01*
X220644874Y-71758676D01*
X220770163Y-71852466D01*
X220770164Y-71852467D01*
X221008689Y-71982712D01*
X221008693Y-71982714D01*
X221263345Y-72077694D01*
X221528902Y-72135462D01*
X221528909Y-72135463D01*
X221624713Y-72142316D01*
X221690178Y-72166733D01*
X221732049Y-72222667D01*
X221737033Y-72292358D01*
X221703548Y-72353681D01*
X221642225Y-72387166D01*
X221615867Y-72390000D01*
X220396362Y-72390000D01*
X220329323Y-72370315D01*
X220308681Y-72353681D01*
X218984319Y-71029319D01*
X218950834Y-70967996D01*
X218948000Y-70941638D01*
X218948000Y-62999998D01*
X219895147Y-62999998D01*
X219895147Y-63000001D01*
X219914536Y-63271090D01*
X219914537Y-63271097D01*
X219972305Y-63536654D01*
X220067285Y-63791306D01*
X220067287Y-63791310D01*
X220197532Y-64029835D01*
X220197537Y-64029843D01*
X220291321Y-64155123D01*
X220291322Y-64155124D01*
X221160690Y-63285756D01*
X221179668Y-63331574D01*
X221256274Y-63446224D01*
X221353776Y-63543726D01*
X221468426Y-63620332D01*
X221514242Y-63639309D01*
X220644874Y-64508676D01*
X220770163Y-64602466D01*
X220770164Y-64602467D01*
X221008689Y-64732712D01*
X221008693Y-64732714D01*
X221263345Y-64827694D01*
X221528902Y-64885462D01*
X221528909Y-64885463D01*
X221799999Y-64904853D01*
X221800001Y-64904853D01*
X222071090Y-64885463D01*
X222071097Y-64885462D01*
X222336654Y-64827694D01*
X222591306Y-64732714D01*
X222591310Y-64732712D01*
X222829844Y-64602462D01*
X222955123Y-64508677D01*
X222955124Y-64508676D01*
X222085757Y-63639309D01*
X222131574Y-63620332D01*
X222246224Y-63543726D01*
X222343726Y-63446224D01*
X222420332Y-63331574D01*
X222439309Y-63285757D01*
X223308676Y-64155124D01*
X223308677Y-64155123D01*
X223402462Y-64029844D01*
X223532712Y-63791310D01*
X223532714Y-63791306D01*
X223627694Y-63536654D01*
X223685462Y-63271097D01*
X223685463Y-63271090D01*
X223704853Y-63000001D01*
X223704853Y-62999998D01*
X223685463Y-62728909D01*
X223685462Y-62728902D01*
X223627694Y-62463345D01*
X223532714Y-62208693D01*
X223532712Y-62208689D01*
X223402467Y-61970164D01*
X223402466Y-61970163D01*
X223308676Y-61844874D01*
X222439309Y-62714242D01*
X222420332Y-62668426D01*
X222343726Y-62553776D01*
X222246224Y-62456274D01*
X222131574Y-62379668D01*
X222085757Y-62360690D01*
X222955124Y-61491322D01*
X222955123Y-61491321D01*
X222829843Y-61397537D01*
X222829835Y-61397532D01*
X222591310Y-61267287D01*
X222591306Y-61267285D01*
X222336654Y-61172305D01*
X222071097Y-61114537D01*
X222071090Y-61114536D01*
X221800001Y-61095147D01*
X221799999Y-61095147D01*
X221528909Y-61114536D01*
X221528902Y-61114537D01*
X221263345Y-61172305D01*
X221008693Y-61267285D01*
X221008689Y-61267287D01*
X220770164Y-61397532D01*
X220770156Y-61397537D01*
X220644875Y-61491321D01*
X220644874Y-61491322D01*
X221514242Y-62360690D01*
X221468426Y-62379668D01*
X221353776Y-62456274D01*
X221256274Y-62553776D01*
X221179668Y-62668426D01*
X221160690Y-62714242D01*
X220291322Y-61844874D01*
X220291321Y-61844875D01*
X220197537Y-61970156D01*
X220197532Y-61970164D01*
X220067287Y-62208689D01*
X220067285Y-62208693D01*
X219972305Y-62463345D01*
X219914537Y-62728902D01*
X219914536Y-62728909D01*
X219895147Y-62999998D01*
X218948000Y-62999998D01*
X218948000Y-55749998D01*
X219895147Y-55749998D01*
X219895147Y-55750001D01*
X219914536Y-56021090D01*
X219914537Y-56021097D01*
X219972305Y-56286654D01*
X220067285Y-56541306D01*
X220067287Y-56541310D01*
X220197532Y-56779835D01*
X220197537Y-56779843D01*
X220291321Y-56905123D01*
X220291322Y-56905124D01*
X221160690Y-56035756D01*
X221179668Y-56081574D01*
X221256274Y-56196224D01*
X221353776Y-56293726D01*
X221468426Y-56370332D01*
X221514242Y-56389309D01*
X220644874Y-57258676D01*
X220770163Y-57352466D01*
X220770164Y-57352467D01*
X221008689Y-57482712D01*
X221008693Y-57482714D01*
X221263345Y-57577694D01*
X221528902Y-57635462D01*
X221528909Y-57635463D01*
X221799999Y-57654853D01*
X221800001Y-57654853D01*
X222071090Y-57635463D01*
X222071097Y-57635462D01*
X222336654Y-57577694D01*
X222591306Y-57482714D01*
X222591310Y-57482712D01*
X222829844Y-57352462D01*
X222955123Y-57258677D01*
X222955124Y-57258676D01*
X222085757Y-56389309D01*
X222131574Y-56370332D01*
X222246224Y-56293726D01*
X222343726Y-56196224D01*
X222420332Y-56081574D01*
X222439309Y-56035757D01*
X223308676Y-56905124D01*
X223308677Y-56905123D01*
X223402462Y-56779844D01*
X223532712Y-56541310D01*
X223532714Y-56541306D01*
X223627694Y-56286654D01*
X223685462Y-56021097D01*
X223685463Y-56021090D01*
X223704853Y-55750001D01*
X223704853Y-55749998D01*
X223685463Y-55478909D01*
X223685462Y-55478902D01*
X223627694Y-55213345D01*
X223532714Y-54958693D01*
X223532712Y-54958689D01*
X223402467Y-54720164D01*
X223402466Y-54720163D01*
X223308676Y-54594874D01*
X222439309Y-55464242D01*
X222420332Y-55418426D01*
X222343726Y-55303776D01*
X222246224Y-55206274D01*
X222131574Y-55129668D01*
X222085757Y-55110690D01*
X222955124Y-54241322D01*
X222955123Y-54241321D01*
X222829843Y-54147537D01*
X222829835Y-54147532D01*
X222591310Y-54017287D01*
X222591306Y-54017285D01*
X222336654Y-53922305D01*
X222071097Y-53864537D01*
X222071090Y-53864536D01*
X221800001Y-53845147D01*
X221799999Y-53845147D01*
X221528909Y-53864536D01*
X221528902Y-53864537D01*
X221263345Y-53922305D01*
X221008693Y-54017285D01*
X221008689Y-54017287D01*
X220770164Y-54147532D01*
X220770156Y-54147537D01*
X220644875Y-54241321D01*
X220644874Y-54241322D01*
X221514242Y-55110690D01*
X221468426Y-55129668D01*
X221353776Y-55206274D01*
X221256274Y-55303776D01*
X221179668Y-55418426D01*
X221160690Y-55464242D01*
X220291322Y-54594874D01*
X220291321Y-54594875D01*
X220197537Y-54720156D01*
X220197532Y-54720164D01*
X220067287Y-54958689D01*
X220067285Y-54958693D01*
X219972305Y-55213345D01*
X219914537Y-55478902D01*
X219914536Y-55478909D01*
X219895147Y-55749998D01*
X218948000Y-55749998D01*
X218948000Y-48895000D01*
X218670362Y-48895000D01*
X218656740Y-48891000D01*
X215825131Y-48891000D01*
X215822996Y-48892166D01*
X215796638Y-48895000D01*
X215291200Y-48895000D01*
X215224161Y-48875315D01*
X215178406Y-48822511D01*
X215167200Y-48771000D01*
X215167200Y-48499998D01*
X219895147Y-48499998D01*
X219895147Y-48500001D01*
X219914536Y-48771090D01*
X219914537Y-48771097D01*
X219972305Y-49036654D01*
X220067285Y-49291306D01*
X220067287Y-49291310D01*
X220197532Y-49529835D01*
X220197537Y-49529843D01*
X220291321Y-49655123D01*
X220291322Y-49655124D01*
X221160690Y-48785756D01*
X221179668Y-48831574D01*
X221256274Y-48946224D01*
X221353776Y-49043726D01*
X221468426Y-49120332D01*
X221514242Y-49139309D01*
X220644874Y-50008676D01*
X220770163Y-50102466D01*
X220770164Y-50102467D01*
X221008689Y-50232712D01*
X221008693Y-50232714D01*
X221263345Y-50327694D01*
X221528902Y-50385462D01*
X221528909Y-50385463D01*
X221799999Y-50404853D01*
X221800001Y-50404853D01*
X222071090Y-50385463D01*
X222071097Y-50385462D01*
X222336654Y-50327694D01*
X222591306Y-50232714D01*
X222591310Y-50232712D01*
X222829844Y-50102462D01*
X222955123Y-50008677D01*
X222955124Y-50008676D01*
X222085757Y-49139309D01*
X222131574Y-49120332D01*
X222246224Y-49043726D01*
X222343726Y-48946224D01*
X222420332Y-48831574D01*
X222439309Y-48785757D01*
X223308676Y-49655124D01*
X223308677Y-49655123D01*
X223402462Y-49529844D01*
X223532712Y-49291310D01*
X223532714Y-49291306D01*
X223627694Y-49036654D01*
X223685462Y-48771097D01*
X223685463Y-48771090D01*
X223704853Y-48500001D01*
X223704853Y-48499998D01*
X223685463Y-48228909D01*
X223685462Y-48228902D01*
X223627694Y-47963345D01*
X223532714Y-47708693D01*
X223532712Y-47708689D01*
X223402467Y-47470164D01*
X223402466Y-47470163D01*
X223308676Y-47344874D01*
X222439309Y-48214242D01*
X222420332Y-48168426D01*
X222343726Y-48053776D01*
X222246224Y-47956274D01*
X222131574Y-47879668D01*
X222085757Y-47860690D01*
X222955124Y-46991322D01*
X222955123Y-46991321D01*
X222829843Y-46897537D01*
X222829835Y-46897532D01*
X222591310Y-46767287D01*
X222591306Y-46767285D01*
X222336654Y-46672305D01*
X222071097Y-46614537D01*
X222071090Y-46614536D01*
X221800001Y-46595147D01*
X221799999Y-46595147D01*
X221528909Y-46614536D01*
X221528902Y-46614537D01*
X221263345Y-46672305D01*
X221008693Y-46767285D01*
X221008689Y-46767287D01*
X220770164Y-46897532D01*
X220770156Y-46897537D01*
X220644875Y-46991321D01*
X220644874Y-46991322D01*
X221514242Y-47860690D01*
X221468426Y-47879668D01*
X221353776Y-47956274D01*
X221256274Y-48053776D01*
X221179668Y-48168426D01*
X221160690Y-48214242D01*
X220291322Y-47344874D01*
X220291321Y-47344875D01*
X220197537Y-47470156D01*
X220197532Y-47470164D01*
X220067287Y-47708689D01*
X220067285Y-47708693D01*
X219972305Y-47963345D01*
X219914537Y-48228902D01*
X219914536Y-48228909D01*
X219895147Y-48499998D01*
X215167200Y-48499998D01*
X215167200Y-48362342D01*
X215852000Y-48362342D01*
X215852000Y-48391000D01*
X216412000Y-48391000D01*
X216412000Y-47775769D01*
X216912000Y-47775769D01*
X216912000Y-48391000D01*
X217555000Y-48391000D01*
X218055000Y-48391000D01*
X218615000Y-48391000D01*
X218615000Y-48362357D01*
X218614999Y-48362342D01*
X218612078Y-48325222D01*
X218612077Y-48325216D01*
X218565908Y-48166305D01*
X218565907Y-48166302D01*
X218481666Y-48023857D01*
X218481660Y-48023849D01*
X218364650Y-47906839D01*
X218364642Y-47906833D01*
X218222197Y-47822592D01*
X218222194Y-47822590D01*
X218063280Y-47776421D01*
X218063281Y-47776421D01*
X218055000Y-47775769D01*
X218055000Y-48391000D01*
X217555000Y-48391000D01*
X217555000Y-47775769D01*
X217546718Y-47776421D01*
X217387805Y-47822590D01*
X217387798Y-47822594D01*
X217296620Y-47876516D01*
X217228896Y-47893699D01*
X217170380Y-47876516D01*
X217079201Y-47822594D01*
X217079194Y-47822590D01*
X216920280Y-47776421D01*
X216920281Y-47776421D01*
X216912000Y-47775769D01*
X216412000Y-47775769D01*
X216403718Y-47776421D01*
X216244805Y-47822590D01*
X216244802Y-47822592D01*
X216102357Y-47906833D01*
X216102349Y-47906839D01*
X215985339Y-48023849D01*
X215985333Y-48023857D01*
X215901092Y-48166302D01*
X215901091Y-48166305D01*
X215854922Y-48325216D01*
X215854921Y-48325222D01*
X215852000Y-48362342D01*
X215167200Y-48362342D01*
X215167200Y-48205200D01*
X214250212Y-48205200D01*
X214283125Y-48148193D01*
X214317200Y-48021026D01*
X214317200Y-47889374D01*
X214283125Y-47762207D01*
X214250212Y-47705200D01*
X215167200Y-47705200D01*
X215167200Y-47057372D01*
X215167199Y-47057355D01*
X215160798Y-46997827D01*
X215160796Y-46997820D01*
X215110554Y-46863113D01*
X215110550Y-46863106D01*
X215024390Y-46748012D01*
X215024387Y-46748009D01*
X214909293Y-46661849D01*
X214909286Y-46661845D01*
X214774579Y-46611603D01*
X214774572Y-46611601D01*
X214715044Y-46605200D01*
X214067200Y-46605200D01*
X214067200Y-47522188D01*
X214010193Y-47489275D01*
X213883026Y-47455200D01*
X213751374Y-47455200D01*
X213624207Y-47489275D01*
X213567200Y-47522188D01*
X213567200Y-46605200D01*
X212919355Y-46605200D01*
X212859827Y-46611601D01*
X212859820Y-46611603D01*
X212725113Y-46661845D01*
X212725111Y-46661846D01*
X212669311Y-46703619D01*
X212603847Y-46728036D01*
X212535574Y-46713185D01*
X212486168Y-46663780D01*
X212471000Y-46604352D01*
X212471000Y-46352000D01*
X212490685Y-46284961D01*
X212543489Y-46239206D01*
X212595000Y-46228000D01*
X222960638Y-46228000D01*
X223027677Y-46247685D01*
G37*
%TD.AperFunction*%
%TD*%
%TA.AperFunction,Conductor*%
%TO.N,GND*%
G36*
X257942539Y-44520185D02*
G01*
X257988294Y-44572989D01*
X257999500Y-44624500D01*
X257999500Y-74875500D01*
X257979815Y-74942539D01*
X257927011Y-74988294D01*
X257875500Y-74999500D01*
X210624500Y-74999500D01*
X210557461Y-74979815D01*
X210511706Y-74927011D01*
X210500500Y-74875500D01*
X210500500Y-46352001D01*
X211965500Y-46352001D01*
X211965500Y-46604355D01*
X211981202Y-46729365D01*
X211981203Y-46729371D01*
X211990764Y-46766830D01*
X211996370Y-46788793D01*
X212038990Y-46897113D01*
X212042505Y-46906047D01*
X212128721Y-47021216D01*
X212128725Y-47021221D01*
X212128729Y-47021226D01*
X212178135Y-47070631D01*
X212178136Y-47070632D01*
X212178139Y-47070634D01*
X212293317Y-47156854D01*
X212293318Y-47156854D01*
X212293319Y-47156855D01*
X212386034Y-47191434D01*
X212441965Y-47233302D01*
X212466384Y-47298766D01*
X212466700Y-47307615D01*
X212466700Y-48853070D01*
X212466701Y-48853076D01*
X212473108Y-48912683D01*
X212523402Y-49047528D01*
X212523406Y-49047535D01*
X212609652Y-49162744D01*
X212609655Y-49162747D01*
X212724864Y-49248993D01*
X212724871Y-49248997D01*
X212787102Y-49272207D01*
X212856798Y-49298202D01*
X212912731Y-49340073D01*
X212937149Y-49405537D01*
X212922298Y-49473810D01*
X212901147Y-49502065D01*
X212779086Y-49624126D01*
X212643600Y-49817620D01*
X212643599Y-49817622D01*
X212543770Y-50031707D01*
X212543767Y-50031713D01*
X212486564Y-50245199D01*
X212486564Y-50245200D01*
X213384188Y-50245200D01*
X213351275Y-50302207D01*
X213317200Y-50429374D01*
X213317200Y-50561026D01*
X213351275Y-50688193D01*
X213384188Y-50745200D01*
X212486564Y-50745200D01*
X212543767Y-50958686D01*
X212543770Y-50958692D01*
X212643599Y-51172778D01*
X212779094Y-51366282D01*
X212946117Y-51533305D01*
X213139621Y-51668800D01*
X213353707Y-51768629D01*
X213353716Y-51768633D01*
X213567200Y-51825834D01*
X213567200Y-50928212D01*
X213624207Y-50961125D01*
X213751374Y-50995200D01*
X213883026Y-50995200D01*
X214010193Y-50961125D01*
X214067200Y-50928212D01*
X214067200Y-51825833D01*
X214280683Y-51768633D01*
X214280692Y-51768629D01*
X214494778Y-51668800D01*
X214688282Y-51533305D01*
X214855305Y-51366282D01*
X214990800Y-51172778D01*
X215090629Y-50958692D01*
X215090632Y-50958686D01*
X215147836Y-50745200D01*
X214250212Y-50745200D01*
X214283125Y-50688193D01*
X214317200Y-50561026D01*
X214317200Y-50429374D01*
X214283125Y-50302207D01*
X214250212Y-50245200D01*
X215147836Y-50245200D01*
X215147835Y-50245199D01*
X215096780Y-50054657D01*
X215852000Y-50054657D01*
X215854921Y-50091777D01*
X215854922Y-50091783D01*
X215901091Y-50250694D01*
X215901092Y-50250697D01*
X215985333Y-50393142D01*
X215985339Y-50393150D01*
X216102349Y-50510160D01*
X216102357Y-50510166D01*
X216244802Y-50594407D01*
X216244805Y-50594409D01*
X216403717Y-50640577D01*
X216403724Y-50640579D01*
X216411998Y-50641229D01*
X216412000Y-50641228D01*
X216912000Y-50641228D01*
X216912001Y-50641229D01*
X216920275Y-50640579D01*
X216920282Y-50640577D01*
X217079194Y-50594409D01*
X217079197Y-50594407D01*
X217170379Y-50540483D01*
X217238103Y-50523300D01*
X217296621Y-50540483D01*
X217387802Y-50594407D01*
X217387805Y-50594409D01*
X217546717Y-50640577D01*
X217546724Y-50640579D01*
X217554998Y-50641229D01*
X217555000Y-50641228D01*
X217555000Y-50026000D01*
X216912000Y-50026000D01*
X216912000Y-50641228D01*
X216412000Y-50641228D01*
X216412000Y-50026000D01*
X215852000Y-50026000D01*
X215852000Y-50054657D01*
X215096780Y-50054657D01*
X215090632Y-50031713D01*
X215090629Y-50031707D01*
X214990800Y-49817622D01*
X214990799Y-49817620D01*
X214855313Y-49624126D01*
X214855308Y-49624120D01*
X214733253Y-49502065D01*
X214699768Y-49440742D01*
X214704752Y-49371050D01*
X214746624Y-49315117D01*
X214777594Y-49298205D01*
X214827887Y-49279446D01*
X214897576Y-49274463D01*
X214942609Y-49297006D01*
X214943403Y-49295772D01*
X214950867Y-49300569D01*
X215081734Y-49360335D01*
X215081741Y-49360338D01*
X215148780Y-49380023D01*
X215148784Y-49380024D01*
X215291200Y-49400500D01*
X215291203Y-49400500D01*
X215728000Y-49400500D01*
X215795039Y-49420185D01*
X215840794Y-49472989D01*
X215852000Y-49524500D01*
X215852000Y-49526000D01*
X217931000Y-49526000D01*
X217998039Y-49545685D01*
X218043794Y-49598489D01*
X218055000Y-49650000D01*
X218055000Y-50641228D01*
X218055001Y-50641229D01*
X218063275Y-50640579D01*
X218063282Y-50640577D01*
X218222194Y-50594409D01*
X218222197Y-50594407D01*
X218255379Y-50574784D01*
X218323102Y-50557601D01*
X218389365Y-50579761D01*
X218433129Y-50634227D01*
X218442500Y-50681516D01*
X218442500Y-70941640D01*
X218445397Y-70995688D01*
X218445397Y-70995689D01*
X218448229Y-71022022D01*
X218448232Y-71022049D01*
X218456885Y-71075445D01*
X218456885Y-71075447D01*
X218507166Y-71210252D01*
X218507168Y-71210257D01*
X218540653Y-71271580D01*
X218626877Y-71386761D01*
X218626881Y-71386765D01*
X218626886Y-71386771D01*
X218853144Y-71613028D01*
X219951239Y-72711123D01*
X219951255Y-72711137D01*
X219951262Y-72711144D01*
X219991480Y-72747271D01*
X219991492Y-72747281D01*
X219991500Y-72747288D01*
X220012142Y-72763922D01*
X220056026Y-72795567D01*
X220186903Y-72855338D01*
X220253942Y-72875023D01*
X220253946Y-72875024D01*
X220396362Y-72895500D01*
X220396365Y-72895500D01*
X221615869Y-72895500D01*
X221626015Y-72894955D01*
X221669907Y-72892603D01*
X221669915Y-72892602D01*
X221669917Y-72892602D01*
X221669918Y-72892602D01*
X221676911Y-72891849D01*
X221696265Y-72889769D01*
X221696275Y-72889767D01*
X221696278Y-72889767D01*
X221749672Y-72881115D01*
X221749672Y-72881114D01*
X221749677Y-72881114D01*
X221760680Y-72877009D01*
X221830369Y-72872021D01*
X221838962Y-72874215D01*
X221841713Y-72875023D01*
X221841717Y-72875024D01*
X221984133Y-72895500D01*
X221984136Y-72895500D01*
X222960640Y-72895500D01*
X222970786Y-72894955D01*
X223014678Y-72892603D01*
X223014686Y-72892602D01*
X223014688Y-72892602D01*
X223014689Y-72892602D01*
X223021682Y-72891849D01*
X223041036Y-72889769D01*
X223041046Y-72889767D01*
X223041049Y-72889767D01*
X223050648Y-72888211D01*
X223094448Y-72881114D01*
X223229257Y-72830832D01*
X223290580Y-72797347D01*
X223405761Y-72711123D01*
X224984123Y-71132761D01*
X225020288Y-71092500D01*
X225036922Y-71071858D01*
X225068567Y-71027974D01*
X225128338Y-70897097D01*
X225148023Y-70830058D01*
X225148024Y-70830054D01*
X225168500Y-70687638D01*
X225168500Y-70249998D01*
X245294645Y-70249998D01*
X245294645Y-70250001D01*
X245314039Y-70521160D01*
X245314040Y-70521167D01*
X245371823Y-70786793D01*
X245371825Y-70786801D01*
X245429577Y-70941640D01*
X245466830Y-71041519D01*
X245597109Y-71280107D01*
X245597110Y-71280108D01*
X245597113Y-71280113D01*
X245760029Y-71497742D01*
X245760033Y-71497746D01*
X245760038Y-71497752D01*
X245952247Y-71689961D01*
X245952253Y-71689966D01*
X245952258Y-71689971D01*
X246169887Y-71852887D01*
X246169891Y-71852889D01*
X246169892Y-71852890D01*
X246408481Y-71983169D01*
X246408480Y-71983169D01*
X246408484Y-71983170D01*
X246408487Y-71983172D01*
X246663199Y-72078175D01*
X246928840Y-72135961D01*
X247180605Y-72153967D01*
X247199999Y-72155355D01*
X247200000Y-72155355D01*
X247200001Y-72155355D01*
X247218100Y-72154060D01*
X247471160Y-72135961D01*
X247736801Y-72078175D01*
X247991513Y-71983172D01*
X247991517Y-71983169D01*
X247991519Y-71983169D01*
X248110813Y-71918029D01*
X248230113Y-71852887D01*
X248447742Y-71689971D01*
X248639971Y-71497742D01*
X248802887Y-71280113D01*
X248914644Y-71075445D01*
X248933169Y-71041519D01*
X248933169Y-71041517D01*
X248933172Y-71041513D01*
X249028175Y-70786801D01*
X249085961Y-70521160D01*
X249105355Y-70250000D01*
X249085961Y-69978840D01*
X249028175Y-69713199D01*
X249019471Y-69689865D01*
X249014488Y-69620174D01*
X249047971Y-69558854D01*
X249408981Y-69197844D01*
X250800000Y-69197844D01*
X250806401Y-69257372D01*
X250806403Y-69257379D01*
X250856645Y-69392086D01*
X250856649Y-69392093D01*
X250942809Y-69507187D01*
X250942812Y-69507190D01*
X251057906Y-69593350D01*
X251057913Y-69593354D01*
X251192620Y-69643596D01*
X251192627Y-69643598D01*
X251252155Y-69649999D01*
X251252172Y-69650000D01*
X252400000Y-69650000D01*
X252900000Y-69650000D01*
X254047828Y-69650000D01*
X254047844Y-69649999D01*
X254107372Y-69643598D01*
X254107379Y-69643596D01*
X254242086Y-69593354D01*
X254242093Y-69593350D01*
X254357187Y-69507190D01*
X254357190Y-69507187D01*
X254443350Y-69392093D01*
X254443354Y-69392086D01*
X254493596Y-69257379D01*
X254493598Y-69257372D01*
X254499999Y-69197844D01*
X254500000Y-69197827D01*
X254500000Y-69150000D01*
X252900000Y-69150000D01*
X252900000Y-69650000D01*
X252400000Y-69650000D01*
X252400000Y-69150000D01*
X250800000Y-69150000D01*
X250800000Y-69197844D01*
X249408981Y-69197844D01*
X250588320Y-68018506D01*
X250649642Y-67985022D01*
X250719334Y-67990006D01*
X250775267Y-68031878D01*
X250799684Y-68097342D01*
X250800000Y-68106188D01*
X250800000Y-68347844D01*
X250806401Y-68407372D01*
X250806403Y-68407379D01*
X250815462Y-68431669D01*
X250820445Y-68501361D01*
X250815462Y-68518331D01*
X250806403Y-68542620D01*
X250806401Y-68542627D01*
X250800000Y-68602155D01*
X250800000Y-68650000D01*
X252400000Y-68650000D01*
X252900000Y-68650000D01*
X254500000Y-68650000D01*
X254500000Y-68602172D01*
X254499999Y-68602155D01*
X254493598Y-68542627D01*
X254493597Y-68542624D01*
X254484538Y-68518335D01*
X254479552Y-68448644D01*
X254484538Y-68431665D01*
X254493597Y-68407375D01*
X254493598Y-68407372D01*
X254499999Y-68347844D01*
X254500000Y-68347827D01*
X254500000Y-68050000D01*
X252900000Y-68050000D01*
X252900000Y-68650000D01*
X252400000Y-68650000D01*
X252400000Y-67674000D01*
X252419685Y-67606961D01*
X252472489Y-67561206D01*
X252524000Y-67550000D01*
X254500000Y-67550000D01*
X254500000Y-67252172D01*
X254499999Y-67252155D01*
X254493598Y-67192627D01*
X254493597Y-67192623D01*
X254484804Y-67169047D01*
X254479820Y-67099355D01*
X254484802Y-67082387D01*
X254494091Y-67057483D01*
X254500500Y-66997873D01*
X254500499Y-66402128D01*
X254494091Y-66342517D01*
X254443796Y-66207669D01*
X254443795Y-66207668D01*
X254443793Y-66207664D01*
X254357547Y-66092455D01*
X254357544Y-66092452D01*
X254242335Y-66006206D01*
X254242328Y-66006202D01*
X254107482Y-65955908D01*
X254107483Y-65955908D01*
X254047883Y-65949501D01*
X254047881Y-65949500D01*
X254047873Y-65949500D01*
X254047865Y-65949500D01*
X253000335Y-65949500D01*
X252952882Y-65940061D01*
X252888602Y-65913435D01*
X252888594Y-65913433D01*
X252730570Y-65882000D01*
X252730566Y-65882000D01*
X250669434Y-65882000D01*
X250669429Y-65882000D01*
X250511405Y-65913433D01*
X250511397Y-65913435D01*
X250362533Y-65975096D01*
X250228552Y-66064619D01*
X247891146Y-68402025D01*
X247829823Y-68435510D01*
X247760133Y-68430526D01*
X247736807Y-68421826D01*
X247736802Y-68421825D01*
X247471167Y-68364040D01*
X247471160Y-68364039D01*
X247200001Y-68344645D01*
X247199999Y-68344645D01*
X246928839Y-68364039D01*
X246928832Y-68364040D01*
X246663206Y-68421823D01*
X246663202Y-68421824D01*
X246663199Y-68421825D01*
X246591295Y-68448644D01*
X246408480Y-68516830D01*
X246169892Y-68647109D01*
X246169891Y-68647110D01*
X245952259Y-68810028D01*
X245952247Y-68810038D01*
X245760038Y-69002247D01*
X245760028Y-69002259D01*
X245597110Y-69219891D01*
X245597109Y-69219892D01*
X245466830Y-69458480D01*
X245429394Y-69558852D01*
X245371825Y-69713199D01*
X245371824Y-69713202D01*
X245371823Y-69713206D01*
X245314040Y-69978832D01*
X245314039Y-69978839D01*
X245294645Y-70249998D01*
X225168500Y-70249998D01*
X225168500Y-62999998D01*
X245294645Y-62999998D01*
X245294645Y-63000001D01*
X245314039Y-63271160D01*
X245314040Y-63271167D01*
X245371823Y-63536793D01*
X245371825Y-63536801D01*
X245448330Y-63741920D01*
X245466830Y-63791519D01*
X245597109Y-64030107D01*
X245597110Y-64030108D01*
X245597113Y-64030113D01*
X245760029Y-64247742D01*
X245760033Y-64247746D01*
X245760038Y-64247752D01*
X245952247Y-64439961D01*
X245952253Y-64439966D01*
X245952258Y-64439971D01*
X246169887Y-64602887D01*
X246169891Y-64602889D01*
X246169892Y-64602890D01*
X246408481Y-64733169D01*
X246408480Y-64733169D01*
X246408484Y-64733170D01*
X246408487Y-64733172D01*
X246663199Y-64828175D01*
X246928840Y-64885961D01*
X247180605Y-64903967D01*
X247199999Y-64905355D01*
X247200000Y-64905355D01*
X247200001Y-64905355D01*
X247218100Y-64904060D01*
X247471160Y-64885961D01*
X247736801Y-64828175D01*
X247991513Y-64733172D01*
X247991517Y-64733169D01*
X247991519Y-64733169D01*
X248110813Y-64668029D01*
X248230113Y-64602887D01*
X248447742Y-64439971D01*
X248639971Y-64247742D01*
X248802887Y-64030113D01*
X248933172Y-63791513D01*
X249028175Y-63536801D01*
X249085961Y-63271160D01*
X249105355Y-63000000D01*
X249085961Y-62728840D01*
X249068342Y-62647844D01*
X250800000Y-62647844D01*
X250806401Y-62707372D01*
X250806403Y-62707379D01*
X250856645Y-62842086D01*
X250856649Y-62842093D01*
X250942809Y-62957187D01*
X250942812Y-62957190D01*
X251057906Y-63043350D01*
X251057913Y-63043354D01*
X251192620Y-63093596D01*
X251192627Y-63093598D01*
X251252155Y-63099999D01*
X251252172Y-63100000D01*
X252400000Y-63100000D01*
X252900000Y-63100000D01*
X254047828Y-63100000D01*
X254047844Y-63099999D01*
X254107372Y-63093598D01*
X254107379Y-63093596D01*
X254242086Y-63043354D01*
X254242093Y-63043350D01*
X254357187Y-62957190D01*
X254357190Y-62957187D01*
X254443350Y-62842093D01*
X254443354Y-62842086D01*
X254493596Y-62707379D01*
X254493598Y-62707372D01*
X254499999Y-62647844D01*
X254500000Y-62647827D01*
X254500000Y-62600000D01*
X252900000Y-62600000D01*
X252900000Y-63100000D01*
X252400000Y-63100000D01*
X252400000Y-62600000D01*
X250800000Y-62600000D01*
X250800000Y-62647844D01*
X249068342Y-62647844D01*
X249028175Y-62463199D01*
X249019471Y-62439865D01*
X249014488Y-62370174D01*
X249047971Y-62308854D01*
X249558981Y-61797844D01*
X250800000Y-61797844D01*
X250806401Y-61857372D01*
X250806403Y-61857379D01*
X250815462Y-61881669D01*
X250820445Y-61951361D01*
X250815462Y-61968331D01*
X250806403Y-61992620D01*
X250806401Y-61992627D01*
X250800000Y-62052155D01*
X250800000Y-62100000D01*
X252400000Y-62100000D01*
X252900000Y-62100000D01*
X254500000Y-62100000D01*
X254500000Y-62052172D01*
X254499999Y-62052155D01*
X254493598Y-61992627D01*
X254493597Y-61992624D01*
X254484538Y-61968335D01*
X254479552Y-61898644D01*
X254484538Y-61881665D01*
X254493597Y-61857375D01*
X254493598Y-61857372D01*
X254499999Y-61797844D01*
X254500000Y-61797827D01*
X254500000Y-61500000D01*
X252900000Y-61500000D01*
X252900000Y-62100000D01*
X252400000Y-62100000D01*
X252400000Y-61500000D01*
X250800000Y-61500000D01*
X250800000Y-61797844D01*
X249558981Y-61797844D01*
X250352507Y-61004319D01*
X250413830Y-60970834D01*
X250440188Y-60968000D01*
X250716638Y-60968000D01*
X250783677Y-60987685D01*
X250798959Y-61000000D01*
X254500000Y-61000000D01*
X254500000Y-60702172D01*
X254499999Y-60702155D01*
X254493598Y-60642627D01*
X254493597Y-60642623D01*
X254484804Y-60619047D01*
X254479820Y-60549355D01*
X254484802Y-60532387D01*
X254494091Y-60507483D01*
X254500500Y-60447873D01*
X254500499Y-59852128D01*
X254494091Y-59792517D01*
X254443796Y-59657669D01*
X254443795Y-59657668D01*
X254443793Y-59657664D01*
X254357547Y-59542455D01*
X254357544Y-59542452D01*
X254242335Y-59456206D01*
X254242328Y-59456202D01*
X254107482Y-59405908D01*
X254107483Y-59405908D01*
X254047883Y-59399501D01*
X254047881Y-59399500D01*
X254047873Y-59399500D01*
X254047865Y-59399500D01*
X253000335Y-59399500D01*
X252952882Y-59390061D01*
X252888602Y-59363435D01*
X252888594Y-59363433D01*
X252730570Y-59332000D01*
X252730566Y-59332000D01*
X249969434Y-59332000D01*
X249969429Y-59332000D01*
X249811405Y-59363433D01*
X249811393Y-59363436D01*
X249662536Y-59425094D01*
X249615976Y-59456205D01*
X249528556Y-59514616D01*
X249471587Y-59571585D01*
X249414618Y-59628555D01*
X249414616Y-59628557D01*
X247891146Y-61152025D01*
X247829823Y-61185510D01*
X247760133Y-61180526D01*
X247736807Y-61171826D01*
X247736802Y-61171825D01*
X247471167Y-61114040D01*
X247471160Y-61114039D01*
X247200001Y-61094645D01*
X247199999Y-61094645D01*
X246928839Y-61114039D01*
X246928832Y-61114040D01*
X246663206Y-61171823D01*
X246663202Y-61171824D01*
X246663199Y-61171825D01*
X246565205Y-61208375D01*
X246408480Y-61266830D01*
X246169892Y-61397109D01*
X246169891Y-61397110D01*
X245952259Y-61560028D01*
X245952247Y-61560038D01*
X245760038Y-61752247D01*
X245760028Y-61752259D01*
X245597110Y-61969891D01*
X245597109Y-61969892D01*
X245466830Y-62208480D01*
X245429394Y-62308852D01*
X245371825Y-62463199D01*
X245371824Y-62463202D01*
X245371823Y-62463206D01*
X245314040Y-62728832D01*
X245314039Y-62728839D01*
X245294645Y-62999998D01*
X225168500Y-62999998D01*
X225168500Y-55749998D01*
X245294645Y-55749998D01*
X245294645Y-55750001D01*
X245314039Y-56021160D01*
X245314040Y-56021167D01*
X245343671Y-56157379D01*
X245371825Y-56286801D01*
X245416727Y-56407187D01*
X245466830Y-56541519D01*
X245597109Y-56780107D01*
X245597110Y-56780108D01*
X245597113Y-56780113D01*
X245760029Y-56997742D01*
X245760033Y-56997746D01*
X245760038Y-56997752D01*
X245952247Y-57189961D01*
X245952253Y-57189966D01*
X245952258Y-57189971D01*
X246169887Y-57352887D01*
X246169891Y-57352889D01*
X246169892Y-57352890D01*
X246408481Y-57483169D01*
X246408480Y-57483169D01*
X246408484Y-57483170D01*
X246408487Y-57483172D01*
X246663199Y-57578175D01*
X246928840Y-57635961D01*
X247180605Y-57653967D01*
X247199999Y-57655355D01*
X247200000Y-57655355D01*
X247200001Y-57655355D01*
X247218100Y-57654060D01*
X247471160Y-57635961D01*
X247736801Y-57578175D01*
X247991513Y-57483172D01*
X247991517Y-57483169D01*
X247991519Y-57483169D01*
X248110813Y-57418029D01*
X248230113Y-57352887D01*
X248447742Y-57189971D01*
X248639971Y-56997742D01*
X248802887Y-56780113D01*
X248928538Y-56550000D01*
X248933169Y-56541519D01*
X248933169Y-56541517D01*
X248933172Y-56541513D01*
X249028175Y-56286801D01*
X249069280Y-56097844D01*
X250800000Y-56097844D01*
X250806401Y-56157372D01*
X250806403Y-56157379D01*
X250856645Y-56292086D01*
X250856649Y-56292093D01*
X250942809Y-56407187D01*
X250942812Y-56407190D01*
X251057906Y-56493350D01*
X251057913Y-56493354D01*
X251192620Y-56543596D01*
X251192627Y-56543598D01*
X251252155Y-56549999D01*
X251252172Y-56550000D01*
X252400000Y-56550000D01*
X252900000Y-56550000D01*
X254047828Y-56550000D01*
X254047844Y-56549999D01*
X254107372Y-56543598D01*
X254107379Y-56543596D01*
X254242086Y-56493354D01*
X254242093Y-56493350D01*
X254357187Y-56407190D01*
X254357190Y-56407187D01*
X254443350Y-56292093D01*
X254443354Y-56292086D01*
X254493596Y-56157379D01*
X254493598Y-56157372D01*
X254499999Y-56097844D01*
X254500000Y-56097827D01*
X254500000Y-56050000D01*
X252900000Y-56050000D01*
X252900000Y-56550000D01*
X252400000Y-56550000D01*
X252400000Y-56050000D01*
X250800000Y-56050000D01*
X250800000Y-56097844D01*
X249069280Y-56097844D01*
X249085961Y-56021160D01*
X249105355Y-55750000D01*
X249085961Y-55478840D01*
X249047437Y-55301746D01*
X249035712Y-55247844D01*
X250800000Y-55247844D01*
X250806401Y-55307372D01*
X250806403Y-55307379D01*
X250815462Y-55331669D01*
X250820445Y-55401361D01*
X250815462Y-55418331D01*
X250806403Y-55442620D01*
X250806401Y-55442627D01*
X250800000Y-55502155D01*
X250800000Y-55550000D01*
X252400000Y-55550000D01*
X252900000Y-55550000D01*
X254500000Y-55550000D01*
X254500000Y-55502172D01*
X254499999Y-55502155D01*
X254493598Y-55442627D01*
X254493597Y-55442624D01*
X254484538Y-55418335D01*
X254479552Y-55348644D01*
X254484538Y-55331665D01*
X254493597Y-55307375D01*
X254493598Y-55307372D01*
X254499999Y-55247844D01*
X254500000Y-55247827D01*
X254500000Y-54950000D01*
X252900000Y-54950000D01*
X252900000Y-55550000D01*
X252400000Y-55550000D01*
X252400000Y-54950000D01*
X250800000Y-54950000D01*
X250800000Y-55247844D01*
X249035712Y-55247844D01*
X249028176Y-55213203D01*
X249019472Y-55189866D01*
X249014488Y-55120174D01*
X249047971Y-55058854D01*
X249652508Y-54454319D01*
X249713831Y-54420834D01*
X249740189Y-54418000D01*
X250716638Y-54418000D01*
X250783677Y-54437685D01*
X250798959Y-54450000D01*
X254500000Y-54450000D01*
X254500000Y-54152172D01*
X254499999Y-54152155D01*
X254493598Y-54092627D01*
X254493597Y-54092623D01*
X254484804Y-54069047D01*
X254479820Y-53999355D01*
X254484802Y-53982387D01*
X254494091Y-53957483D01*
X254500500Y-53897873D01*
X254500499Y-53302128D01*
X254494091Y-53242517D01*
X254443796Y-53107669D01*
X254443795Y-53107668D01*
X254443793Y-53107664D01*
X254357547Y-52992455D01*
X254357544Y-52992452D01*
X254242335Y-52906206D01*
X254242328Y-52906202D01*
X254107482Y-52855908D01*
X254107483Y-52855908D01*
X254047883Y-52849501D01*
X254047881Y-52849500D01*
X254047873Y-52849500D01*
X254047865Y-52849500D01*
X253000335Y-52849500D01*
X252952882Y-52840061D01*
X252888602Y-52813435D01*
X252888594Y-52813433D01*
X252730570Y-52782000D01*
X252730566Y-52782000D01*
X249269434Y-52782000D01*
X249269429Y-52782000D01*
X249111405Y-52813433D01*
X249111397Y-52813435D01*
X248962533Y-52875096D01*
X248828552Y-52964619D01*
X247891146Y-53902025D01*
X247829823Y-53935510D01*
X247760133Y-53930526D01*
X247736807Y-53921826D01*
X247736802Y-53921825D01*
X247471167Y-53864040D01*
X247471160Y-53864039D01*
X247200001Y-53844645D01*
X247199999Y-53844645D01*
X246928839Y-53864039D01*
X246928832Y-53864040D01*
X246663206Y-53921823D01*
X246663202Y-53921824D01*
X246663199Y-53921825D01*
X246567597Y-53957483D01*
X246408480Y-54016830D01*
X246169892Y-54147109D01*
X246169891Y-54147110D01*
X245952259Y-54310028D01*
X245952247Y-54310038D01*
X245760038Y-54502247D01*
X245760028Y-54502259D01*
X245597110Y-54719891D01*
X245597109Y-54719892D01*
X245466830Y-54958480D01*
X245429394Y-55058852D01*
X245371825Y-55213199D01*
X245371824Y-55213202D01*
X245371823Y-55213206D01*
X245314040Y-55478832D01*
X245314039Y-55478839D01*
X245294645Y-55749998D01*
X225168500Y-55749998D01*
X225168500Y-48499998D01*
X245294645Y-48499998D01*
X245294645Y-48500001D01*
X245314039Y-48771160D01*
X245314040Y-48771167D01*
X245371823Y-49036793D01*
X245371825Y-49036801D01*
X245418801Y-49162747D01*
X245466830Y-49291519D01*
X245597109Y-49530107D01*
X245597110Y-49530108D01*
X245597113Y-49530113D01*
X245760029Y-49747742D01*
X245760033Y-49747746D01*
X245760038Y-49747752D01*
X245952247Y-49939961D01*
X245952253Y-49939966D01*
X245952258Y-49939971D01*
X246169887Y-50102887D01*
X246169891Y-50102889D01*
X246169892Y-50102890D01*
X246408481Y-50233169D01*
X246408480Y-50233169D01*
X246408484Y-50233170D01*
X246408487Y-50233172D01*
X246663199Y-50328175D01*
X246928840Y-50385961D01*
X247180605Y-50403967D01*
X247199999Y-50405355D01*
X247200000Y-50405355D01*
X247200001Y-50405355D01*
X247218100Y-50404060D01*
X247471160Y-50385961D01*
X247736801Y-50328175D01*
X247991513Y-50233172D01*
X247991517Y-50233169D01*
X247991519Y-50233169D01*
X248110813Y-50168029D01*
X248230113Y-50102887D01*
X248447742Y-49939971D01*
X248639971Y-49747742D01*
X248802887Y-49530113D01*
X248820507Y-49497844D01*
X250800000Y-49497844D01*
X250806401Y-49557372D01*
X250806403Y-49557379D01*
X250856645Y-49692086D01*
X250856649Y-49692093D01*
X250942809Y-49807187D01*
X250942812Y-49807190D01*
X251057906Y-49893350D01*
X251057913Y-49893354D01*
X251192620Y-49943596D01*
X251192627Y-49943598D01*
X251252155Y-49949999D01*
X251252172Y-49950000D01*
X252400000Y-49950000D01*
X252900000Y-49950000D01*
X254047828Y-49950000D01*
X254047844Y-49949999D01*
X254107372Y-49943598D01*
X254107379Y-49943596D01*
X254242086Y-49893354D01*
X254242093Y-49893350D01*
X254357187Y-49807190D01*
X254357190Y-49807187D01*
X254443350Y-49692093D01*
X254443354Y-49692086D01*
X254493596Y-49557379D01*
X254493598Y-49557372D01*
X254499999Y-49497844D01*
X254500000Y-49497827D01*
X254500000Y-49450000D01*
X252900000Y-49450000D01*
X252900000Y-49950000D01*
X252400000Y-49950000D01*
X252400000Y-49450000D01*
X250800000Y-49450000D01*
X250800000Y-49497844D01*
X248820507Y-49497844D01*
X248895591Y-49360338D01*
X248933169Y-49291519D01*
X248933169Y-49291517D01*
X248933172Y-49291513D01*
X249028175Y-49036801D01*
X249085961Y-48771160D01*
X249094781Y-48647844D01*
X250800000Y-48647844D01*
X250806401Y-48707372D01*
X250806403Y-48707379D01*
X250815462Y-48731669D01*
X250820445Y-48801361D01*
X250815462Y-48818331D01*
X250806403Y-48842620D01*
X250806401Y-48842627D01*
X250800000Y-48902155D01*
X250800000Y-48950000D01*
X252400000Y-48950000D01*
X252900000Y-48950000D01*
X254500000Y-48950000D01*
X254500000Y-48902172D01*
X254499999Y-48902155D01*
X254493598Y-48842627D01*
X254493597Y-48842624D01*
X254484538Y-48818335D01*
X254479552Y-48748644D01*
X254484538Y-48731665D01*
X254493597Y-48707375D01*
X254493598Y-48707372D01*
X254499999Y-48647844D01*
X254500000Y-48647827D01*
X254500000Y-48350000D01*
X252900000Y-48350000D01*
X252900000Y-48950000D01*
X252400000Y-48950000D01*
X252400000Y-48350000D01*
X250800000Y-48350000D01*
X250800000Y-48647844D01*
X249094781Y-48647844D01*
X249105355Y-48500000D01*
X249085961Y-48228840D01*
X249040174Y-48018358D01*
X249045158Y-47948666D01*
X249087030Y-47892733D01*
X249152494Y-47868316D01*
X249161340Y-47868000D01*
X252730567Y-47868000D01*
X252730567Y-47867999D01*
X252809079Y-47852382D01*
X252833270Y-47850000D01*
X254500000Y-47850000D01*
X254500000Y-47552172D01*
X254499999Y-47552155D01*
X254493598Y-47492627D01*
X254493597Y-47492623D01*
X254484804Y-47469047D01*
X254479820Y-47399355D01*
X254484802Y-47382387D01*
X254494091Y-47357483D01*
X254500500Y-47297873D01*
X254500499Y-46702128D01*
X254494091Y-46642517D01*
X254483469Y-46614039D01*
X254443797Y-46507671D01*
X254443793Y-46507664D01*
X254357547Y-46392455D01*
X254357544Y-46392452D01*
X254242335Y-46306206D01*
X254242328Y-46306202D01*
X254107482Y-46255908D01*
X254107483Y-46255908D01*
X254047883Y-46249501D01*
X254047881Y-46249500D01*
X254047873Y-46249500D01*
X254047865Y-46249500D01*
X252830762Y-46249500D01*
X252806572Y-46247118D01*
X252782236Y-46242277D01*
X252730566Y-46232000D01*
X248569434Y-46232000D01*
X248569433Y-46232000D01*
X248525444Y-46240750D01*
X248481455Y-46249500D01*
X248425332Y-46260663D01*
X248411397Y-46263435D01*
X248411396Y-46263435D01*
X248262536Y-46325094D01*
X248262534Y-46325095D01*
X248182219Y-46378761D01*
X248182218Y-46378762D01*
X248128554Y-46414618D01*
X248071586Y-46471586D01*
X248014618Y-46528555D01*
X248014616Y-46528557D01*
X247948528Y-46594645D01*
X247891146Y-46652027D01*
X247829823Y-46685511D01*
X247760133Y-46680527D01*
X247736798Y-46671824D01*
X247471167Y-46614040D01*
X247471160Y-46614039D01*
X247200001Y-46594645D01*
X247199999Y-46594645D01*
X246928839Y-46614039D01*
X246928832Y-46614040D01*
X246663206Y-46671823D01*
X246663202Y-46671824D01*
X246663199Y-46671825D01*
X246535843Y-46719326D01*
X246408480Y-46766830D01*
X246169892Y-46897109D01*
X246169891Y-46897110D01*
X245952259Y-47060028D01*
X245952247Y-47060038D01*
X245760038Y-47252247D01*
X245760028Y-47252259D01*
X245597110Y-47469891D01*
X245597109Y-47469892D01*
X245466830Y-47708480D01*
X245419326Y-47835843D01*
X245371825Y-47963199D01*
X245371824Y-47963202D01*
X245371823Y-47963206D01*
X245314040Y-48228832D01*
X245314039Y-48228839D01*
X245294645Y-48499998D01*
X225168500Y-48499998D01*
X225168500Y-47930362D01*
X225165603Y-47876322D01*
X225162769Y-47849964D01*
X225154114Y-47796552D01*
X225103832Y-47661743D01*
X225070347Y-47600420D01*
X224984123Y-47485239D01*
X224984118Y-47485234D01*
X224984113Y-47485228D01*
X223405776Y-45906892D01*
X223405761Y-45906877D01*
X223405737Y-45906855D01*
X223365519Y-45870728D01*
X223365507Y-45870718D01*
X223344856Y-45854076D01*
X223300974Y-45822433D01*
X223170100Y-45762663D01*
X223103055Y-45742976D01*
X223040985Y-45734052D01*
X222960638Y-45722500D01*
X212595000Y-45722500D01*
X212594991Y-45722500D01*
X212594990Y-45722501D01*
X212487549Y-45734052D01*
X212487537Y-45734054D01*
X212436027Y-45745260D01*
X212333502Y-45779383D01*
X212333496Y-45779386D01*
X212212462Y-45857171D01*
X212212451Y-45857179D01*
X212159659Y-45902923D01*
X212065433Y-46011664D01*
X212065430Y-46011668D01*
X212005664Y-46142534D01*
X211985976Y-46209582D01*
X211965500Y-46352001D01*
X210500500Y-46352001D01*
X210500500Y-44624500D01*
X210520185Y-44557461D01*
X210572989Y-44511706D01*
X210624500Y-44500500D01*
X257875500Y-44500500D01*
X257942539Y-44520185D01*
G37*
%TD.AperFunction*%
%TD*%
M02*
