%TF.GenerationSoftware,KiCad,Pcbnew,8.0.3*%
%TF.CreationDate,2024-06-27T14:15:58-04:00*%
%TF.ProjectId,PCB,5043422e-6b69-4636-9164-5f7063625858,rev?*%
%TF.SameCoordinates,Original*%
%TF.FileFunction,Legend,Top*%
%TF.FilePolarity,Positive*%
%FSLAX46Y46*%
G04 Gerber Fmt 4.6, Leading zero omitted, Abs format (unit mm)*
G04 Created by KiCad (PCBNEW 8.0.3) date 2024-06-27 14:15:58*
%MOMM*%
%LPD*%
G01*
G04 APERTURE LIST*
G04 Aperture macros list*
%AMRoundRect*
0 Rectangle with rounded corners*
0 $1 Rounding radius*
0 $2 $3 $4 $5 $6 $7 $8 $9 X,Y pos of 4 corners*
0 Add a 4 corners polygon primitive as box body*
4,1,4,$2,$3,$4,$5,$6,$7,$8,$9,$2,$3,0*
0 Add four circle primitives for the rounded corners*
1,1,$1+$1,$2,$3*
1,1,$1+$1,$4,$5*
1,1,$1+$1,$6,$7*
1,1,$1+$1,$8,$9*
0 Add four rect primitives between the rounded corners*
20,1,$1+$1,$2,$3,$4,$5,0*
20,1,$1+$1,$4,$5,$6,$7,0*
20,1,$1+$1,$6,$7,$8,$9,0*
20,1,$1+$1,$8,$9,$2,$3,0*%
G04 Aperture macros list end*
%ADD10C,0.150000*%
%ADD11C,0.254000*%
%ADD12C,0.120000*%
%ADD13C,0.200000*%
%ADD14C,0.100000*%
%ADD15R,1.700000X1.700000*%
%ADD16O,1.700000X1.700000*%
%ADD17C,2.800000*%
%ADD18O,2.800000X2.800000*%
%ADD19R,2.700000X0.500000*%
%ADD20R,2.700000X1.000000*%
%ADD21RoundRect,0.155000X-0.155000X0.212500X-0.155000X-0.212500X0.155000X-0.212500X0.155000X0.212500X0*%
G04 APERTURE END LIST*
D10*
X213483866Y-44640019D02*
X213483866Y-45354304D01*
X213483866Y-45354304D02*
X213436247Y-45497161D01*
X213436247Y-45497161D02*
X213341009Y-45592400D01*
X213341009Y-45592400D02*
X213198152Y-45640019D01*
X213198152Y-45640019D02*
X213102914Y-45640019D01*
X214483866Y-45640019D02*
X213912438Y-45640019D01*
X214198152Y-45640019D02*
X214198152Y-44640019D01*
X214198152Y-44640019D02*
X214102914Y-44782876D01*
X214102914Y-44782876D02*
X214007676Y-44878114D01*
X214007676Y-44878114D02*
X213912438Y-44925733D01*
X234529333Y-68907819D02*
X234196000Y-68431628D01*
X233957905Y-68907819D02*
X233957905Y-67907819D01*
X233957905Y-67907819D02*
X234338857Y-67907819D01*
X234338857Y-67907819D02*
X234434095Y-67955438D01*
X234434095Y-67955438D02*
X234481714Y-68003057D01*
X234481714Y-68003057D02*
X234529333Y-68098295D01*
X234529333Y-68098295D02*
X234529333Y-68241152D01*
X234529333Y-68241152D02*
X234481714Y-68336390D01*
X234481714Y-68336390D02*
X234434095Y-68384009D01*
X234434095Y-68384009D02*
X234338857Y-68431628D01*
X234338857Y-68431628D02*
X233957905Y-68431628D01*
X235386476Y-68241152D02*
X235386476Y-68907819D01*
X235148381Y-67860200D02*
X234910286Y-68574485D01*
X234910286Y-68574485D02*
X235529333Y-68574485D01*
X234402333Y-61795819D02*
X234069000Y-61319628D01*
X233830905Y-61795819D02*
X233830905Y-60795819D01*
X233830905Y-60795819D02*
X234211857Y-60795819D01*
X234211857Y-60795819D02*
X234307095Y-60843438D01*
X234307095Y-60843438D02*
X234354714Y-60891057D01*
X234354714Y-60891057D02*
X234402333Y-60986295D01*
X234402333Y-60986295D02*
X234402333Y-61129152D01*
X234402333Y-61129152D02*
X234354714Y-61224390D01*
X234354714Y-61224390D02*
X234307095Y-61272009D01*
X234307095Y-61272009D02*
X234211857Y-61319628D01*
X234211857Y-61319628D02*
X233830905Y-61319628D01*
X234735667Y-60795819D02*
X235354714Y-60795819D01*
X235354714Y-60795819D02*
X235021381Y-61176771D01*
X235021381Y-61176771D02*
X235164238Y-61176771D01*
X235164238Y-61176771D02*
X235259476Y-61224390D01*
X235259476Y-61224390D02*
X235307095Y-61272009D01*
X235307095Y-61272009D02*
X235354714Y-61367247D01*
X235354714Y-61367247D02*
X235354714Y-61605342D01*
X235354714Y-61605342D02*
X235307095Y-61700580D01*
X235307095Y-61700580D02*
X235259476Y-61748200D01*
X235259476Y-61748200D02*
X235164238Y-61795819D01*
X235164238Y-61795819D02*
X234878524Y-61795819D01*
X234878524Y-61795819D02*
X234783286Y-61748200D01*
X234783286Y-61748200D02*
X234735667Y-61700580D01*
X234402333Y-54937819D02*
X234069000Y-54461628D01*
X233830905Y-54937819D02*
X233830905Y-53937819D01*
X233830905Y-53937819D02*
X234211857Y-53937819D01*
X234211857Y-53937819D02*
X234307095Y-53985438D01*
X234307095Y-53985438D02*
X234354714Y-54033057D01*
X234354714Y-54033057D02*
X234402333Y-54128295D01*
X234402333Y-54128295D02*
X234402333Y-54271152D01*
X234402333Y-54271152D02*
X234354714Y-54366390D01*
X234354714Y-54366390D02*
X234307095Y-54414009D01*
X234307095Y-54414009D02*
X234211857Y-54461628D01*
X234211857Y-54461628D02*
X233830905Y-54461628D01*
X234783286Y-54033057D02*
X234830905Y-53985438D01*
X234830905Y-53985438D02*
X234926143Y-53937819D01*
X234926143Y-53937819D02*
X235164238Y-53937819D01*
X235164238Y-53937819D02*
X235259476Y-53985438D01*
X235259476Y-53985438D02*
X235307095Y-54033057D01*
X235307095Y-54033057D02*
X235354714Y-54128295D01*
X235354714Y-54128295D02*
X235354714Y-54223533D01*
X235354714Y-54223533D02*
X235307095Y-54366390D01*
X235307095Y-54366390D02*
X234735667Y-54937819D01*
X234735667Y-54937819D02*
X235354714Y-54937819D01*
X234148333Y-47571819D02*
X233815000Y-47095628D01*
X233576905Y-47571819D02*
X233576905Y-46571819D01*
X233576905Y-46571819D02*
X233957857Y-46571819D01*
X233957857Y-46571819D02*
X234053095Y-46619438D01*
X234053095Y-46619438D02*
X234100714Y-46667057D01*
X234100714Y-46667057D02*
X234148333Y-46762295D01*
X234148333Y-46762295D02*
X234148333Y-46905152D01*
X234148333Y-46905152D02*
X234100714Y-47000390D01*
X234100714Y-47000390D02*
X234053095Y-47048009D01*
X234053095Y-47048009D02*
X233957857Y-47095628D01*
X233957857Y-47095628D02*
X233576905Y-47095628D01*
X235100714Y-47571819D02*
X234529286Y-47571819D01*
X234815000Y-47571819D02*
X234815000Y-46571819D01*
X234815000Y-46571819D02*
X234719762Y-46714676D01*
X234719762Y-46714676D02*
X234624524Y-46809914D01*
X234624524Y-46809914D02*
X234529286Y-46857533D01*
D11*
X256860318Y-69239190D02*
X256860318Y-69843952D01*
X256860318Y-69843952D02*
X255590318Y-69843952D01*
X256195080Y-68815857D02*
X256195080Y-68392523D01*
X256860318Y-68211095D02*
X256860318Y-68815857D01*
X256860318Y-68815857D02*
X255590318Y-68815857D01*
X255590318Y-68815857D02*
X255590318Y-68211095D01*
X256860318Y-67666809D02*
X255590318Y-67666809D01*
X255590318Y-67666809D02*
X255590318Y-67364428D01*
X255590318Y-67364428D02*
X255650794Y-67182999D01*
X255650794Y-67182999D02*
X255771746Y-67062047D01*
X255771746Y-67062047D02*
X255892699Y-67001570D01*
X255892699Y-67001570D02*
X256134603Y-66941094D01*
X256134603Y-66941094D02*
X256316032Y-66941094D01*
X256316032Y-66941094D02*
X256557937Y-67001570D01*
X256557937Y-67001570D02*
X256678889Y-67062047D01*
X256678889Y-67062047D02*
X256799842Y-67182999D01*
X256799842Y-67182999D02*
X256860318Y-67364428D01*
X256860318Y-67364428D02*
X256860318Y-67666809D01*
X256013651Y-65852523D02*
X256860318Y-65852523D01*
X255529842Y-66154904D02*
X256436984Y-66457285D01*
X256436984Y-66457285D02*
X256436984Y-65671094D01*
X256987318Y-62635190D02*
X256987318Y-63239952D01*
X256987318Y-63239952D02*
X255717318Y-63239952D01*
X256322080Y-62211857D02*
X256322080Y-61788523D01*
X256987318Y-61607095D02*
X256987318Y-62211857D01*
X256987318Y-62211857D02*
X255717318Y-62211857D01*
X255717318Y-62211857D02*
X255717318Y-61607095D01*
X256987318Y-61062809D02*
X255717318Y-61062809D01*
X255717318Y-61062809D02*
X255717318Y-60760428D01*
X255717318Y-60760428D02*
X255777794Y-60578999D01*
X255777794Y-60578999D02*
X255898746Y-60458047D01*
X255898746Y-60458047D02*
X256019699Y-60397570D01*
X256019699Y-60397570D02*
X256261603Y-60337094D01*
X256261603Y-60337094D02*
X256443032Y-60337094D01*
X256443032Y-60337094D02*
X256684937Y-60397570D01*
X256684937Y-60397570D02*
X256805889Y-60458047D01*
X256805889Y-60458047D02*
X256926842Y-60578999D01*
X256926842Y-60578999D02*
X256987318Y-60760428D01*
X256987318Y-60760428D02*
X256987318Y-61062809D01*
X255717318Y-59913761D02*
X255717318Y-59127570D01*
X255717318Y-59127570D02*
X256201127Y-59550904D01*
X256201127Y-59550904D02*
X256201127Y-59369475D01*
X256201127Y-59369475D02*
X256261603Y-59248523D01*
X256261603Y-59248523D02*
X256322080Y-59188047D01*
X256322080Y-59188047D02*
X256443032Y-59127570D01*
X256443032Y-59127570D02*
X256745413Y-59127570D01*
X256745413Y-59127570D02*
X256866365Y-59188047D01*
X256866365Y-59188047D02*
X256926842Y-59248523D01*
X256926842Y-59248523D02*
X256987318Y-59369475D01*
X256987318Y-59369475D02*
X256987318Y-59732332D01*
X256987318Y-59732332D02*
X256926842Y-59853285D01*
X256926842Y-59853285D02*
X256866365Y-59913761D01*
X256987318Y-56121190D02*
X256987318Y-56725952D01*
X256987318Y-56725952D02*
X255717318Y-56725952D01*
X256322080Y-55697857D02*
X256322080Y-55274523D01*
X256987318Y-55093095D02*
X256987318Y-55697857D01*
X256987318Y-55697857D02*
X255717318Y-55697857D01*
X255717318Y-55697857D02*
X255717318Y-55093095D01*
X256987318Y-54548809D02*
X255717318Y-54548809D01*
X255717318Y-54548809D02*
X255717318Y-54246428D01*
X255717318Y-54246428D02*
X255777794Y-54064999D01*
X255777794Y-54064999D02*
X255898746Y-53944047D01*
X255898746Y-53944047D02*
X256019699Y-53883570D01*
X256019699Y-53883570D02*
X256261603Y-53823094D01*
X256261603Y-53823094D02*
X256443032Y-53823094D01*
X256443032Y-53823094D02*
X256684937Y-53883570D01*
X256684937Y-53883570D02*
X256805889Y-53944047D01*
X256805889Y-53944047D02*
X256926842Y-54064999D01*
X256926842Y-54064999D02*
X256987318Y-54246428D01*
X256987318Y-54246428D02*
X256987318Y-54548809D01*
X255838270Y-53339285D02*
X255777794Y-53278809D01*
X255777794Y-53278809D02*
X255717318Y-53157856D01*
X255717318Y-53157856D02*
X255717318Y-52855475D01*
X255717318Y-52855475D02*
X255777794Y-52734523D01*
X255777794Y-52734523D02*
X255838270Y-52674047D01*
X255838270Y-52674047D02*
X255959222Y-52613570D01*
X255959222Y-52613570D02*
X256080175Y-52613570D01*
X256080175Y-52613570D02*
X256261603Y-52674047D01*
X256261603Y-52674047D02*
X256987318Y-53399761D01*
X256987318Y-53399761D02*
X256987318Y-52613570D01*
X256987318Y-49300190D02*
X256987318Y-49904952D01*
X256987318Y-49904952D02*
X255717318Y-49904952D01*
X256322080Y-48876857D02*
X256322080Y-48453523D01*
X256987318Y-48272095D02*
X256987318Y-48876857D01*
X256987318Y-48876857D02*
X255717318Y-48876857D01*
X255717318Y-48876857D02*
X255717318Y-48272095D01*
X256987318Y-47727809D02*
X255717318Y-47727809D01*
X255717318Y-47727809D02*
X255717318Y-47425428D01*
X255717318Y-47425428D02*
X255777794Y-47243999D01*
X255777794Y-47243999D02*
X255898746Y-47123047D01*
X255898746Y-47123047D02*
X256019699Y-47062570D01*
X256019699Y-47062570D02*
X256261603Y-47002094D01*
X256261603Y-47002094D02*
X256443032Y-47002094D01*
X256443032Y-47002094D02*
X256684937Y-47062570D01*
X256684937Y-47062570D02*
X256805889Y-47123047D01*
X256805889Y-47123047D02*
X256926842Y-47243999D01*
X256926842Y-47243999D02*
X256987318Y-47425428D01*
X256987318Y-47425428D02*
X256987318Y-47727809D01*
X256987318Y-45792570D02*
X256987318Y-46518285D01*
X256987318Y-46155428D02*
X255717318Y-46155428D01*
X255717318Y-46155428D02*
X255898746Y-46276380D01*
X255898746Y-46276380D02*
X256019699Y-46397332D01*
X256019699Y-46397332D02*
X256080175Y-46518285D01*
D10*
X216368333Y-47857580D02*
X216320714Y-47905200D01*
X216320714Y-47905200D02*
X216177857Y-47952819D01*
X216177857Y-47952819D02*
X216082619Y-47952819D01*
X216082619Y-47952819D02*
X215939762Y-47905200D01*
X215939762Y-47905200D02*
X215844524Y-47809961D01*
X215844524Y-47809961D02*
X215796905Y-47714723D01*
X215796905Y-47714723D02*
X215749286Y-47524247D01*
X215749286Y-47524247D02*
X215749286Y-47381390D01*
X215749286Y-47381390D02*
X215796905Y-47190914D01*
X215796905Y-47190914D02*
X215844524Y-47095676D01*
X215844524Y-47095676D02*
X215939762Y-47000438D01*
X215939762Y-47000438D02*
X216082619Y-46952819D01*
X216082619Y-46952819D02*
X216177857Y-46952819D01*
X216177857Y-46952819D02*
X216320714Y-47000438D01*
X216320714Y-47000438D02*
X216368333Y-47048057D01*
X216749286Y-47048057D02*
X216796905Y-47000438D01*
X216796905Y-47000438D02*
X216892143Y-46952819D01*
X216892143Y-46952819D02*
X217130238Y-46952819D01*
X217130238Y-46952819D02*
X217225476Y-47000438D01*
X217225476Y-47000438D02*
X217273095Y-47048057D01*
X217273095Y-47048057D02*
X217320714Y-47143295D01*
X217320714Y-47143295D02*
X217320714Y-47238533D01*
X217320714Y-47238533D02*
X217273095Y-47381390D01*
X217273095Y-47381390D02*
X216701667Y-47952819D01*
X216701667Y-47952819D02*
X217320714Y-47952819D01*
X217765333Y-51413580D02*
X217717714Y-51461200D01*
X217717714Y-51461200D02*
X217574857Y-51508819D01*
X217574857Y-51508819D02*
X217479619Y-51508819D01*
X217479619Y-51508819D02*
X217336762Y-51461200D01*
X217336762Y-51461200D02*
X217241524Y-51365961D01*
X217241524Y-51365961D02*
X217193905Y-51270723D01*
X217193905Y-51270723D02*
X217146286Y-51080247D01*
X217146286Y-51080247D02*
X217146286Y-50937390D01*
X217146286Y-50937390D02*
X217193905Y-50746914D01*
X217193905Y-50746914D02*
X217241524Y-50651676D01*
X217241524Y-50651676D02*
X217336762Y-50556438D01*
X217336762Y-50556438D02*
X217479619Y-50508819D01*
X217479619Y-50508819D02*
X217574857Y-50508819D01*
X217574857Y-50508819D02*
X217717714Y-50556438D01*
X217717714Y-50556438D02*
X217765333Y-50604057D01*
X218717714Y-51508819D02*
X218146286Y-51508819D01*
X218432000Y-51508819D02*
X218432000Y-50508819D01*
X218432000Y-50508819D02*
X218336762Y-50651676D01*
X218336762Y-50651676D02*
X218241524Y-50746914D01*
X218241524Y-50746914D02*
X218146286Y-50794533D01*
D12*
%TO.C,J1*%
X212487200Y-49225200D02*
X212487200Y-51825200D01*
X212487200Y-49225200D02*
X215147200Y-49225200D01*
X212487200Y-51825200D02*
X215147200Y-51825200D01*
X213817200Y-46625200D02*
X215147200Y-46625200D01*
X215147200Y-46625200D02*
X215147200Y-47955200D01*
X215147200Y-49225200D02*
X215147200Y-51825200D01*
%TO.C,R4*%
X223440000Y-70250000D02*
X227230000Y-70250000D01*
X227230000Y-67280000D02*
X227230000Y-73220000D01*
X227230000Y-73220000D02*
X241770000Y-73220000D01*
X241770000Y-67280000D02*
X227230000Y-67280000D01*
X241770000Y-73220000D02*
X241770000Y-67280000D01*
X245560000Y-70250000D02*
X241770000Y-70250000D01*
%TO.C,R3*%
X223440000Y-63000000D02*
X227230000Y-63000000D01*
X227230000Y-60030000D02*
X227230000Y-65970000D01*
X227230000Y-65970000D02*
X241770000Y-65970000D01*
X241770000Y-60030000D02*
X227230000Y-60030000D01*
X241770000Y-65970000D02*
X241770000Y-60030000D01*
X245560000Y-63000000D02*
X241770000Y-63000000D01*
%TO.C,R2*%
X223440000Y-55750000D02*
X227230000Y-55750000D01*
X227230000Y-52780000D02*
X227230000Y-58720000D01*
X227230000Y-58720000D02*
X241770000Y-58720000D01*
X241770000Y-52780000D02*
X227230000Y-52780000D01*
X241770000Y-58720000D02*
X241770000Y-52780000D01*
X245560000Y-55750000D02*
X241770000Y-55750000D01*
%TO.C,R1*%
X223440000Y-48500000D02*
X227230000Y-48500000D01*
X227230000Y-45530000D02*
X227230000Y-51470000D01*
X227230000Y-51470000D02*
X241770000Y-51470000D01*
X241770000Y-45530000D02*
X227230000Y-45530000D01*
X241770000Y-51470000D02*
X241770000Y-45530000D01*
X245560000Y-48500000D02*
X241770000Y-48500000D01*
D13*
%TO.C,LED4*%
X250925000Y-66075000D02*
X254375000Y-66075000D01*
X254375000Y-66075000D02*
X254375000Y-69525000D01*
X254375000Y-69525000D02*
X250925000Y-69525000D01*
X250925000Y-69525000D02*
X250925000Y-66075000D01*
D14*
X252650000Y-70200000D02*
X252650000Y-70200000D01*
X252650000Y-70100000D02*
X252650000Y-70100000D01*
X252650000Y-70100000D02*
G75*
G02*
X252650000Y-70200000I0J-50000D01*
G01*
X252650000Y-70200000D02*
G75*
G02*
X252650000Y-70100000I0J50000D01*
G01*
D13*
%TO.C,LED3*%
X250925000Y-59525000D02*
X254375000Y-59525000D01*
X254375000Y-59525000D02*
X254375000Y-62975000D01*
X254375000Y-62975000D02*
X250925000Y-62975000D01*
X250925000Y-62975000D02*
X250925000Y-59525000D01*
D14*
X252650000Y-63650000D02*
X252650000Y-63650000D01*
X252650000Y-63550000D02*
X252650000Y-63550000D01*
X252650000Y-63550000D02*
G75*
G02*
X252650000Y-63650000I0J-50000D01*
G01*
X252650000Y-63650000D02*
G75*
G02*
X252650000Y-63550000I0J50000D01*
G01*
D13*
%TO.C,LED2*%
X250925000Y-52975000D02*
X254375000Y-52975000D01*
X254375000Y-52975000D02*
X254375000Y-56425000D01*
X254375000Y-56425000D02*
X250925000Y-56425000D01*
X250925000Y-56425000D02*
X250925000Y-52975000D01*
D14*
X252650000Y-57100000D02*
X252650000Y-57100000D01*
X252650000Y-57000000D02*
X252650000Y-57000000D01*
X252650000Y-57000000D02*
G75*
G02*
X252650000Y-57100000I0J-50000D01*
G01*
X252650000Y-57100000D02*
G75*
G02*
X252650000Y-57000000I0J50000D01*
G01*
%TO.C,LED1*%
X252650000Y-50500000D02*
G75*
G02*
X252650000Y-50400000I0J50000D01*
G01*
X252650000Y-50400000D02*
G75*
G02*
X252650000Y-50500000I0J-50000D01*
G01*
X252650000Y-50400000D02*
X252650000Y-50400000D01*
X252650000Y-50500000D02*
X252650000Y-50500000D01*
D13*
X250925000Y-49825000D02*
X250925000Y-46375000D01*
X254375000Y-49825000D02*
X250925000Y-49825000D01*
X254375000Y-46375000D02*
X254375000Y-49825000D01*
X250925000Y-46375000D02*
X254375000Y-46375000D01*
D12*
%TO.C,C2*%
X217022000Y-49092665D02*
X217022000Y-49324335D01*
X216302000Y-49092665D02*
X216302000Y-49324335D01*
%TO.C,C1*%
X218165000Y-49092665D02*
X218165000Y-49324335D01*
X217445000Y-49092665D02*
X217445000Y-49324335D01*
%TD*%
%LPC*%
D15*
%TO.C,J1*%
X213817200Y-47955200D03*
D16*
X213817200Y-50495200D03*
%TD*%
D17*
%TO.C,R4*%
X221800000Y-70250000D03*
D18*
X247200000Y-70250000D03*
%TD*%
D17*
%TO.C,R3*%
X221800000Y-63000000D03*
D18*
X247200000Y-63000000D03*
%TD*%
D17*
%TO.C,R2*%
X221800000Y-55750000D03*
D18*
X247200000Y-55750000D03*
%TD*%
D17*
%TO.C,R1*%
X221800000Y-48500000D03*
D18*
X247200000Y-48500000D03*
%TD*%
D19*
%TO.C,LED4*%
X252650000Y-68900000D03*
X252650000Y-66700000D03*
D20*
X252650000Y-67800000D03*
%TD*%
D19*
%TO.C,LED3*%
X252650000Y-62350000D03*
X252650000Y-60150000D03*
D20*
X252650000Y-61250000D03*
%TD*%
D19*
%TO.C,LED2*%
X252650000Y-55800000D03*
X252650000Y-53600000D03*
D20*
X252650000Y-54700000D03*
%TD*%
%TO.C,LED1*%
X252650000Y-48100000D03*
D19*
X252650000Y-47000000D03*
X252650000Y-49200000D03*
%TD*%
D21*
%TO.C,C2*%
X216662000Y-48641000D03*
X216662000Y-49776000D03*
%TD*%
%TO.C,C1*%
X217805000Y-48641000D03*
X217805000Y-49776000D03*
%TD*%
%LPD*%
M02*
