M48
; DRILL file {KiCad 8.0.3} date 2024-06-27T14:18:06-0400
; FORMAT={-:-/ absolute / metric / decimal}
; #@! TF.CreationDate,2024-06-27T14:18:06-04:00
; #@! TF.GenerationSoftware,Kicad,Pcbnew,8.0.3
; #@! TF.FileFunction,Plated,1,2,PTH
FMAT,2
METRIC
; #@! TA.AperFunction,Plated,PTH,ViaDrill
T1C0.300
; #@! TA.AperFunction,Plated,PTH,ComponentDrill
T2C1.000
; #@! TA.AperFunction,Plated,PTH,ComponentDrill
T3C1.400
%
G90
G05
T1
X210.947Y-74.549
X211.201Y-45.085
X211.963Y-50.546
X213.36Y-56.134
X213.36Y-65.024
X213.741Y-52.324
X215.519Y-45.339
X215.646Y-50.419
X217.551Y-65.532
X217.678Y-59.182
X220.472Y-45.212
X226.695Y-48.26
X231.14Y-48.26
X231.14Y-55.88
X231.14Y-63.5
X231.14Y-71.12
X234.188Y-48.26
X241.427Y-48.133
X250.19Y-63.627
X250.317Y-62.357
X250.342Y-70.002
X251.689Y-67.793
X251.714Y-48.133
X251.714Y-54.737
X251.714Y-61.214
X252.171Y-71.095
X252.603Y-48.133
X252.603Y-54.737
X252.603Y-61.214
X252.603Y-63.5
X252.628Y-67.793
X253.0Y-56.0
X253.0Y-62.5
X253.492Y-48.133
X253.492Y-54.737
X253.492Y-61.214
X253.517Y-67.793
X254.152Y-70.129
X254.559Y-71.044
X255.016Y-61.214
X255.016Y-62.357
X255.016Y-63.627
X256.159Y-67.691
X256.286Y-54.61
X256.286Y-61.087
X256.413Y-48.006
T2
X213.817Y-47.955
X213.817Y-50.495
T3
X221.8Y-48.5
X221.8Y-55.75
X221.8Y-63.0
X221.8Y-70.25
X247.2Y-48.5
X247.2Y-55.75
X247.2Y-63.0
X247.2Y-70.25
M30
